<?xml version="1.0" standalone="no"?>
<!DOCTYPE svg PUBLIC "-//W3C//DTD SVG 20010904//EN"
 "http://www.w3.org/TR/2001/REC-SVG-20010904/DTD/svg10.dtd">
<svg version="1.0" xmlns="http://www.w3.org/2000/svg"
 width="700.000000pt" height="700.000000pt" viewBox="0 0 700.000000 700.000000"
 preserveAspectRatio="xMidYMid meet">
<metadata>
Created by potrace 1.14, written by Peter Selinger 2001-2017
</metadata>
<g transform="translate(0.000000,700.000000) scale(0.100000,-0.100000)"
fill="#000000" stroke="none">
<path d="M3308 5804 c-2 -2 -31 -6 -64 -9 -61 -5 -134 -14 -169 -22 -11 -2
-46 -8 -77 -14 -150 -25 -391 -109 -563 -196 -234 -118 -497 -331 -645 -523
-19 -25 -37 -47 -40 -50 -3 -3 -24 -32 -46 -65 -107 -155 -198 -335 -263 -519
-33 -94 -77 -254 -87 -321 -3 -22 -8 -43 -10 -46 -1 -3 -6 -34 -10 -70 -3 -35
-8 -67 -10 -70 -2 -3 -7 -48 -11 -100 -13 -169 -7 -509 11 -619 3 -14 10 -59
16 -100 107 -681 480 -1226 1055 -1542 184 -101 438 -190 640 -224 17 -3 55
-9 85 -14 109 -19 209 -25 410 -24 228 1 315 7 460 34 36 7 76 14 90 16 63 12
218 57 307 90 536 200 951 606 1162 1136 27 69 86 250 96 294 2 10 7 34 11 52
l7 32 -671 0 c-669 0 -671 0 -677 -21 -4 -11 -33 -59 -65 -107 -178 -266 -433
-394 -770 -387 -351 8 -611 167 -779 477 -50 92 -102 256 -117 363 -3 28 -9
54 -12 59 -9 16 -10 358 0 436 59 490 333 823 743 905 103 21 337 14 435 -13
242 -67 449 -234 551 -444 l23 -48 668 0 669 0 -6 38 c-4 20 -11 51 -16 67 -5
17 -17 59 -28 95 -45 154 -144 376 -227 506 -116 183 -285 372 -440 492 -74
58 -163 122 -168 122 -3 0 -31 16 -63 36 -202 130 -560 252 -818 279 -33 4
-71 9 -85 12 -29 6 -497 13 -502 7z"/>
</g>
</svg>
