<svg xmlns="http://www.w3.org/2000/svg" xmlns:xlink="http://www.w3.org/1999/xlink" width="100" zoomAndPan="magnify" viewBox="0 0 75 74.999997" height="100" preserveAspectRatio="xMidYMid meet" version="1.0"><defs><linearGradient x1="0" gradientTransform="matrix(0.75, 0, 0, 0.75, 0.0000015, -0.000001)" y1="0" x2="99.999996" gradientUnits="userSpaceOnUse" y2="0" id="27294d9670"><stop stop-opacity="1" stop-color="rgb(100%, 96.899414%, 67.799377%)" offset="0"/><stop stop-opacity="1" stop-color="rgb(100%, 96.77887%, 67.915344%)" offset="0.0078125"/><stop stop-opacity="1" stop-color="rgb(100%, 96.540833%, 68.147278%)" offset="0.015625"/><stop stop-opacity="1" stop-color="rgb(100%, 96.30127%, 68.380737%)" offset="0.0234375"/><stop stop-opacity="1" stop-color="rgb(100%, 96.061707%, 68.614197%)" offset="0.03125"/><stop stop-opacity="1" stop-color="rgb(100%, 95.823669%, 68.84613%)" offset="0.0390625"/><stop stop-opacity="1" stop-color="rgb(100%, 95.584106%, 69.07959%)" offset="0.046875"/><stop stop-opacity="1" stop-color="rgb(100%, 95.344543%, 69.311523%)" offset="0.0546875"/><stop stop-opacity="1" stop-color="rgb(100%, 95.106506%, 69.544983%)" offset="0.0625"/><stop stop-opacity="1" stop-color="rgb(100%, 94.866943%, 69.778442%)" offset="0.0703125"/><stop stop-opacity="1" stop-color="rgb(100%, 94.62738%, 70.010376%)" offset="0.078125"/><stop stop-opacity="1" stop-color="rgb(100%, 94.387817%, 70.243835%)" offset="0.0859375"/><stop stop-opacity="1" stop-color="rgb(100%, 94.14978%, 70.475769%)" offset="0.09375"/><stop stop-opacity="1" stop-color="rgb(100%, 93.910217%, 70.709229%)" offset="0.101562"/><stop stop-opacity="1" stop-color="rgb(100%, 93.670654%, 70.941162%)" offset="0.109375"/><stop stop-opacity="1" stop-color="rgb(100%, 93.432617%, 71.174622%)" offset="0.117188"/><stop stop-opacity="1" stop-color="rgb(100%, 93.193054%, 71.408081%)" offset="0.125"/><stop stop-opacity="1" stop-color="rgb(100%, 92.953491%, 71.640015%)" offset="0.132812"/><stop stop-opacity="1" stop-color="rgb(100%, 92.715454%, 71.873474%)" offset="0.140625"/><stop stop-opacity="1" stop-color="rgb(100%, 92.475891%, 72.105408%)" offset="0.148438"/><stop stop-opacity="1" stop-color="rgb(100%, 92.236328%, 72.338867%)" offset="0.15625"/><stop stop-opacity="1" stop-color="rgb(100%, 91.998291%, 72.570801%)" offset="0.164062"/><stop stop-opacity="1" stop-color="rgb(100%, 91.758728%, 72.80426%)" offset="0.171875"/><stop stop-opacity="1" stop-color="rgb(100%, 91.519165%, 73.03772%)" offset="0.179688"/><stop stop-opacity="1" stop-color="rgb(100%, 91.281128%, 73.269653%)" offset="0.1875"/><stop stop-opacity="1" stop-color="rgb(100%, 91.041565%, 73.503113%)" offset="0.195312"/><stop stop-opacity="1" stop-color="rgb(100%, 90.802002%, 73.735046%)" offset="0.203125"/><stop stop-opacity="1" stop-color="rgb(100%, 90.563965%, 73.968506%)" offset="0.210938"/><stop stop-opacity="1" stop-color="rgb(100%, 90.324402%, 74.200439%)" offset="0.21875"/><stop stop-opacity="1" stop-color="rgb(100%, 90.084839%, 74.433899%)" offset="0.226562"/><stop stop-opacity="1" stop-color="rgb(100%, 89.846802%, 74.667358%)" offset="0.234375"/><stop stop-opacity="1" stop-color="rgb(100%, 89.607239%, 74.899292%)" offset="0.242188"/><stop stop-opacity="1" stop-color="rgb(100%, 89.367676%, 75.132751%)" offset="0.25"/><stop stop-opacity="1" stop-color="rgb(100%, 89.129639%, 75.364685%)" offset="0.257812"/><stop stop-opacity="1" stop-color="rgb(100%, 88.890076%, 75.598145%)" offset="0.265625"/><stop stop-opacity="1" stop-color="rgb(100%, 88.650513%, 75.830078%)" offset="0.273438"/><stop stop-opacity="1" stop-color="rgb(100%, 88.412476%, 76.063538%)" offset="0.28125"/><stop stop-opacity="1" stop-color="rgb(100%, 88.172913%, 76.296997%)" offset="0.289062"/><stop stop-opacity="1" stop-color="rgb(100%, 87.93335%, 76.528931%)" offset="0.296875"/><stop stop-opacity="1" stop-color="rgb(100%, 87.695312%, 76.76239%)" offset="0.304688"/><stop stop-opacity="1" stop-color="rgb(100%, 87.45575%, 76.994324%)" offset="0.3125"/><stop stop-opacity="1" stop-color="rgb(100%, 87.216187%, 77.227783%)" offset="0.320312"/><stop stop-opacity="1" stop-color="rgb(100%, 86.978149%, 77.461243%)" offset="0.328125"/><stop stop-opacity="1" stop-color="rgb(100%, 86.738586%, 77.693176%)" offset="0.335938"/><stop stop-opacity="1" stop-color="rgb(100%, 86.499023%, 77.926636%)" offset="0.34375"/><stop stop-opacity="1" stop-color="rgb(100%, 86.260986%, 78.158569%)" offset="0.351562"/><stop stop-opacity="1" stop-color="rgb(100%, 86.021423%, 78.392029%)" offset="0.359375"/><stop stop-opacity="1" stop-color="rgb(100%, 85.78186%, 78.623962%)" offset="0.367188"/><stop stop-opacity="1" stop-color="rgb(100%, 85.543823%, 78.857422%)" offset="0.375"/><stop stop-opacity="1" stop-color="rgb(100%, 85.30426%, 79.090881%)" offset="0.382812"/><stop stop-opacity="1" stop-color="rgb(100%, 85.064697%, 79.322815%)" offset="0.390625"/><stop stop-opacity="1" stop-color="rgb(100%, 84.82666%, 79.556274%)" offset="0.398438"/><stop stop-opacity="1" stop-color="rgb(100%, 84.587097%, 79.788208%)" offset="0.40625"/><stop stop-opacity="1" stop-color="rgb(100%, 84.347534%, 80.021667%)" offset="0.414062"/><stop stop-opacity="1" stop-color="rgb(100%, 84.109497%, 80.253601%)" offset="0.421875"/><stop stop-opacity="1" stop-color="rgb(100%, 83.869934%, 80.487061%)" offset="0.429688"/><stop stop-opacity="1" stop-color="rgb(100%, 83.630371%, 80.72052%)" offset="0.4375"/><stop stop-opacity="1" stop-color="rgb(100%, 83.392334%, 80.952454%)" offset="0.445312"/><stop stop-opacity="1" stop-color="rgb(100%, 83.152771%, 81.185913%)" offset="0.453125"/><stop stop-opacity="1" stop-color="rgb(100%, 82.913208%, 81.417847%)" offset="0.460938"/><stop stop-opacity="1" stop-color="rgb(100%, 82.675171%, 81.651306%)" offset="0.46875"/><stop stop-opacity="1" stop-color="rgb(100%, 82.435608%, 81.88324%)" offset="0.476562"/><stop stop-opacity="1" stop-color="rgb(100%, 82.196045%, 82.116699%)" offset="0.484375"/><stop stop-opacity="1" stop-color="rgb(100%, 81.958008%, 82.350159%)" offset="0.492188"/><stop stop-opacity="1" stop-color="rgb(100%, 81.718445%, 82.582092%)" offset="0.5"/><stop stop-opacity="1" stop-color="rgb(100%, 81.478882%, 82.815552%)" offset="0.507812"/><stop stop-opacity="1" stop-color="rgb(100%, 81.240845%, 83.047485%)" offset="0.515625"/><stop stop-opacity="1" stop-color="rgb(100%, 81.001282%, 83.280945%)" offset="0.523438"/><stop stop-opacity="1" stop-color="rgb(100%, 80.761719%, 83.512878%)" offset="0.53125"/><stop stop-opacity="1" stop-color="rgb(100%, 80.523682%, 83.746338%)" offset="0.539062"/><stop stop-opacity="1" stop-color="rgb(100%, 80.284119%, 83.979797%)" offset="0.546875"/><stop stop-opacity="1" stop-color="rgb(100%, 80.044556%, 84.211731%)" offset="0.554688"/><stop stop-opacity="1" stop-color="rgb(100%, 79.806519%, 84.44519%)" offset="0.5625"/><stop stop-opacity="1" stop-color="rgb(100%, 79.566956%, 84.677124%)" offset="0.570312"/><stop stop-opacity="1" stop-color="rgb(100%, 79.327393%, 84.910583%)" offset="0.578125"/><stop stop-opacity="1" stop-color="rgb(100%, 79.08783%, 85.144043%)" offset="0.585938"/><stop stop-opacity="1" stop-color="rgb(100%, 78.849792%, 85.375977%)" offset="0.59375"/><stop stop-opacity="1" stop-color="rgb(100%, 78.610229%, 85.609436%)" offset="0.601562"/><stop stop-opacity="1" stop-color="rgb(100%, 78.370667%, 85.84137%)" offset="0.609375"/><stop stop-opacity="1" stop-color="rgb(100%, 78.132629%, 86.074829%)" offset="0.617188"/><stop stop-opacity="1" stop-color="rgb(100%, 77.893066%, 86.306763%)" offset="0.625"/><stop stop-opacity="1" stop-color="rgb(100%, 77.653503%, 86.540222%)" offset="0.632812"/><stop stop-opacity="1" stop-color="rgb(100%, 77.415466%, 86.773682%)" offset="0.640625"/><stop stop-opacity="1" stop-color="rgb(100%, 77.175903%, 87.005615%)" offset="0.648438"/><stop stop-opacity="1" stop-color="rgb(100%, 76.93634%, 87.239075%)" offset="0.65625"/><stop stop-opacity="1" stop-color="rgb(100%, 76.698303%, 87.471008%)" offset="0.664062"/><stop stop-opacity="1" stop-color="rgb(100%, 76.45874%, 87.704468%)" offset="0.671875"/><stop stop-opacity="1" stop-color="rgb(100%, 76.219177%, 87.936401%)" offset="0.679688"/><stop stop-opacity="1" stop-color="rgb(100%, 75.98114%, 88.169861%)" offset="0.6875"/><stop stop-opacity="1" stop-color="rgb(100%, 75.741577%, 88.40332%)" offset="0.695312"/><stop stop-opacity="1" stop-color="rgb(100%, 75.502014%, 88.635254%)" offset="0.703125"/><stop stop-opacity="1" stop-color="rgb(100%, 75.263977%, 88.868713%)" offset="0.710938"/><stop stop-opacity="1" stop-color="rgb(100%, 75.024414%, 89.100647%)" offset="0.71875"/><stop stop-opacity="1" stop-color="rgb(100%, 74.784851%, 89.334106%)" offset="0.726562"/><stop stop-opacity="1" stop-color="rgb(100%, 74.546814%, 89.56604%)" offset="0.734375"/><stop stop-opacity="1" stop-color="rgb(100%, 74.307251%, 89.7995%)" offset="0.742188"/><stop stop-opacity="1" stop-color="rgb(100%, 74.067688%, 90.032959%)" offset="0.75"/><stop stop-opacity="1" stop-color="rgb(100%, 73.829651%, 90.264893%)" offset="0.757812"/><stop stop-opacity="1" stop-color="rgb(100%, 73.590088%, 90.498352%)" offset="0.765625"/><stop stop-opacity="1" stop-color="rgb(100%, 73.350525%, 90.730286%)" offset="0.773438"/><stop stop-opacity="1" stop-color="rgb(100%, 73.112488%, 90.963745%)" offset="0.78125"/><stop stop-opacity="1" stop-color="rgb(100%, 72.872925%, 91.197205%)" offset="0.789062"/><stop stop-opacity="1" stop-color="rgb(100%, 72.633362%, 91.429138%)" offset="0.796875"/><stop stop-opacity="1" stop-color="rgb(100%, 72.395325%, 91.662598%)" offset="0.804688"/><stop stop-opacity="1" stop-color="rgb(100%, 72.155762%, 91.894531%)" offset="0.8125"/><stop stop-opacity="1" stop-color="rgb(100%, 71.916199%, 92.127991%)" offset="0.820312"/><stop stop-opacity="1" stop-color="rgb(100%, 71.678162%, 92.359924%)" offset="0.828125"/><stop stop-opacity="1" stop-color="rgb(100%, 71.438599%, 92.593384%)" offset="0.835938"/><stop stop-opacity="1" stop-color="rgb(100%, 71.199036%, 92.826843%)" offset="0.84375"/><stop stop-opacity="1" stop-color="rgb(100%, 70.960999%, 93.058777%)" offset="0.851562"/><stop stop-opacity="1" stop-color="rgb(100%, 70.721436%, 93.292236%)" offset="0.859375"/><stop stop-opacity="1" stop-color="rgb(100%, 70.481873%, 93.52417%)" offset="0.867188"/><stop stop-opacity="1" stop-color="rgb(100%, 70.243835%, 93.757629%)" offset="0.875"/><stop stop-opacity="1" stop-color="rgb(100%, 70.004272%, 93.989563%)" offset="0.882812"/><stop stop-opacity="1" stop-color="rgb(100%, 69.764709%, 94.223022%)" offset="0.890625"/><stop stop-opacity="1" stop-color="rgb(100%, 69.526672%, 94.456482%)" offset="0.898438"/><stop stop-opacity="1" stop-color="rgb(100%, 69.287109%, 94.688416%)" offset="0.90625"/><stop stop-opacity="1" stop-color="rgb(100%, 69.047546%, 94.921875%)" offset="0.914062"/><stop stop-opacity="1" stop-color="rgb(100%, 68.809509%, 95.153809%)" offset="0.921875"/><stop stop-opacity="1" stop-color="rgb(100%, 68.569946%, 95.387268%)" offset="0.929688"/><stop stop-opacity="1" stop-color="rgb(100%, 68.330383%, 95.619202%)" offset="0.9375"/><stop stop-opacity="1" stop-color="rgb(100%, 68.092346%, 95.852661%)" offset="0.945312"/><stop stop-opacity="1" stop-color="rgb(100%, 67.852783%, 96.086121%)" offset="0.953125"/><stop stop-opacity="1" stop-color="rgb(100%, 67.61322%, 96.318054%)" offset="0.960938"/><stop stop-opacity="1" stop-color="rgb(100%, 67.375183%, 96.551514%)" offset="0.96875"/><stop stop-opacity="1" stop-color="rgb(100%, 67.13562%, 96.783447%)" offset="0.976562"/><stop stop-opacity="1" stop-color="rgb(100%, 66.896057%, 97.016907%)" offset="0.984375"/><stop stop-opacity="1" stop-color="rgb(100%, 66.65802%, 97.24884%)" offset="0.992188"/><stop stop-opacity="1" stop-color="rgb(100%, 66.418457%, 97.4823%)" offset="1"/></linearGradient><clipPath id="69df519d52"><path d="M 1.234375 28.277344 L 13.320312 28.277344 L 13.320312 35.363281 L 1.234375 35.363281 Z M 1.234375 28.277344 " clip-rule="nonzero"/></clipPath><clipPath id="7c463a104b"><path d="M 61.875 36.375 L 72.488281 36.375 L 72.488281 47.871094 L 61.875 47.871094 Z M 61.875 36.375 " clip-rule="nonzero"/></clipPath></defs><rect x="-7.5" width="90" fill="#ffffff" y="-7.5" height="89.999996" fill-opacity="1"/><rect x="-7.5" fill="url(#27294d9670)" width="90" y="-7.5" height="89.999996"/><g clip-path="url(#69df519d52)"><path fill="#191919" d="M 9.996094 32.402344 C 10.296875 32.351562 10.597656 32.296875 10.890625 32.246094 C 11.113281 32.214844 11.339844 32.1875 11.5625 32.164062 C 11.679688 32.15625 11.84375 32.246094 11.871094 32.363281 C 11.882812 32.410156 11.871094 32.488281 11.835938 32.53125 C 11.746094 32.609375 11.660156 32.6875 11.550781 32.734375 C 11.035156 32.960938 10.511719 33.1875 9.988281 33.402344 C 9.265625 33.699219 8.546875 33.992188 7.835938 34.296875 C 7.769531 34.324219 7.710938 34.363281 7.652344 34.40625 C 7.664062 34.421875 7.664062 34.445312 7.671875 34.460938 C 7.847656 34.445312 8.03125 34.414062 8.207031 34.40625 C 8.683594 34.355469 9.160156 34.316406 9.636719 34.265625 C 9.859375 34.246094 10.082031 34.21875 10.308594 34.199219 C 10.503906 34.1875 10.6875 34.1875 10.878906 34.1875 C 11.484375 34.175781 12.097656 34.175781 12.699219 34.167969 C 12.777344 34.167969 12.867188 34.175781 12.933594 34.160156 C 13.050781 34.109375 13.121094 34.160156 13.203125 34.226562 C 13.28125 34.273438 13.320312 34.34375 13.292969 34.421875 C 13.273438 34.480469 13.195312 34.519531 13.148438 34.550781 C 13.121094 34.570312 13.070312 34.570312 13.03125 34.570312 C 12.464844 34.570312 11.902344 34.558594 11.339844 34.558594 C 10.910156 34.558594 10.480469 34.570312 10.066406 34.597656 C 8.878906 34.679688 7.703125 34.785156 6.554688 35.101562 C 6.28125 35.179688 6 35.238281 5.71875 35.304688 C 5.617188 35.324219 5.511719 35.335938 5.417969 35.335938 C 5.269531 35.324219 5.210938 35.207031 5.277344 35.070312 C 5.328125 34.972656 5.394531 34.902344 5.511719 34.875 C 5.6875 34.828125 5.84375 34.730469 6.007812 34.648438 C 6.046875 34.628906 6.078125 34.609375 6.105469 34.597656 C 7.078125 34.257812 8.011719 33.824219 8.957031 33.414062 C 9.363281 33.238281 9.78125 33.109375 10.199219 32.960938 C 10.402344 32.882812 10.609375 32.804688 10.863281 32.695312 C 10.65625 32.621094 10.511719 32.695312 10.363281 32.71875 C 9.9375 32.804688 9.5 32.894531 9.070312 32.992188 C 8.683594 33.089844 8.300781 33.214844 7.933594 33.390625 C 7.410156 33.660156 6.882812 33.894531 6.371094 34.175781 C 5.601562 34.589844 4.792969 34.894531 3.984375 35.199219 C 3.808594 35.265625 3.605469 35.289062 3.421875 35.324219 C 3.304688 35.347656 3.207031 35.296875 3.148438 35.1875 C 3.09375 35.078125 3.171875 34.992188 3.226562 34.914062 C 3.285156 34.84375 3.363281 34.777344 3.441406 34.730469 C 3.742188 34.550781 4.042969 34.375 4.347656 34.199219 C 4.441406 34.136719 4.550781 34.082031 4.65625 34.03125 C 4.917969 33.914062 5.183594 33.8125 5.433594 33.699219 C 5.578125 33.636719 5.707031 33.550781 5.855469 33.5 C 6.164062 33.402344 6.476562 33.324219 6.785156 33.226562 C 7.265625 33.078125 7.75 32.921875 8.226562 32.757812 C 8.46875 32.667969 8.695312 32.546875 8.917969 32.421875 C 9.925781 31.882812 10.949219 31.332031 11.960938 30.785156 C 12.132812 30.6875 12.289062 30.578125 12.457031 30.441406 C 12.371094 30.390625 12.289062 30.421875 12.210938 30.441406 C 11.6875 30.578125 11.164062 30.707031 10.636719 30.851562 C 10.472656 30.898438 10.320312 30.96875 10.160156 31.03125 C 10.042969 31.070312 9.925781 31.085938 9.8125 31.117188 C 9.695312 31.144531 9.585938 31.167969 9.472656 31.207031 C 8.363281 31.578125 7.242188 31.941406 6.132812 32.335938 C 5.667969 32.5 5.230469 32.746094 4.773438 32.953125 C 4.0625 33.277344 3.355469 33.578125 2.585938 33.746094 C 2.234375 33.8125 1.875 33.851562 1.523438 33.765625 C 1.40625 33.738281 1.28125 33.699219 1.234375 33.550781 C 1.261719 33.390625 1.359375 33.332031 1.523438 33.324219 C 2.253906 33.277344 2.933594 33.03125 3.617188 32.796875 C 4.054688 32.648438 4.480469 32.5 4.910156 32.34375 C 5.765625 32.050781 6.5625 31.644531 7.292969 31.117188 C 7.816406 30.734375 8.371094 30.371094 8.878906 29.96875 C 9.550781 29.441406 10.21875 28.898438 10.8125 28.269531 C 10.917969 28.15625 11.027344 28.046875 11.125 27.917969 C 11.191406 27.820312 11.242188 27.703125 11.300781 27.59375 C 11.320312 27.558594 11.355469 27.507812 11.386719 27.507812 C 11.433594 27.507812 11.484375 27.546875 11.511719 27.574219 C 11.589844 27.671875 11.574219 27.832031 11.457031 27.957031 C 11.171875 28.269531 10.871094 28.585938 10.582031 28.898438 C 10.425781 29.066406 10.25 29.210938 10.101562 29.398438 C 9.925781 29.617188 9.6875 29.773438 9.460938 29.941406 C 9.257812 30.097656 9.042969 30.234375 8.839844 30.390625 C 8.480469 30.664062 8.117188 30.941406 7.742188 31.195312 C 7.671875 31.246094 7.613281 31.292969 7.554688 31.355469 C 7.5625 31.363281 7.574219 31.382812 7.585938 31.390625 C 7.632812 31.390625 7.691406 31.390625 7.730469 31.382812 C 7.933594 31.304688 8.148438 31.214844 8.351562 31.136719 C 8.441406 31.109375 8.539062 31.109375 8.625 31.078125 C 8.957031 30.980469 9.304688 30.910156 9.625 30.761719 C 10.015625 30.585938 10.425781 30.527344 10.824219 30.421875 C 11.417969 30.253906 12.011719 30.125 12.613281 30.019531 C 12.765625 29.988281 12.914062 29.96875 13.042969 30.117188 C 13.1875 30.292969 13.175781 30.410156 12.992188 30.546875 C 12.503906 30.933594 11.972656 31.222656 11.433594 31.53125 C 11.046875 31.742188 10.648438 31.960938 10.25 32.175781 C 10.152344 32.207031 10.015625 32.234375 9.996094 32.402344 Z M 9.996094 32.402344 " fill-opacity="1" fill-rule="nonzero"/></g><path fill="#191919" d="M 7.746094 45.285156 C 7.042969 45.285156 6.382812 45.160156 5.769531 44.90625 C 5.160156 44.652344 4.652344 44.300781 4.246094 43.851562 L 5.382812 42.320312 C 6.136719 43.039062 6.847656 43.398438 7.519531 43.398438 C 7.871094 43.398438 8.15625 43.34375 8.371094 43.230469 C 8.582031 43.109375 8.691406 42.9375 8.691406 42.710938 C 8.691406 42.453125 8.566406 42.253906 8.316406 42.109375 C 8.070312 41.972656 7.789062 41.855469 7.476562 41.761719 C 7.171875 41.664062 6.96875 41.605469 6.867188 41.582031 C 6.125 41.347656 5.574219 40.992188 5.207031 40.519531 C 4.839844 40.050781 4.660156 39.507812 4.660156 38.894531 C 4.660156 38.429688 4.777344 37.976562 5.023438 37.535156 C 5.261719 37.085938 5.636719 36.71875 6.140625 36.4375 C 6.652344 36.148438 7.285156 36.003906 8.046875 36.003906 C 8.753906 36.003906 9.347656 36.078125 9.839844 36.226562 C 10.339844 36.367188 10.816406 36.605469 11.269531 36.941406 L 10.234375 38.566406 C 9.96875 38.355469 9.679688 38.183594 9.363281 38.050781 C 9.046875 37.910156 8.753906 37.839844 8.492188 37.839844 C 8.183594 37.839844 7.925781 37.910156 7.726562 38.039062 C 7.53125 38.167969 7.4375 38.324219 7.4375 38.515625 C 7.421875 38.789062 7.535156 38.996094 7.777344 39.136719 C 8.019531 39.28125 8.394531 39.421875 8.910156 39.570312 C 8.984375 39.597656 9.0625 39.628906 9.148438 39.652344 C 9.234375 39.675781 9.324219 39.703125 9.417969 39.726562 C 10.753906 40.179688 11.425781 41 11.425781 42.195312 C 11.425781 42.761719 11.285156 43.269531 11.011719 43.734375 C 10.742188 44.199219 10.328125 44.578125 9.769531 44.863281 C 9.214844 45.144531 8.539062 45.285156 7.746094 45.285156 Z M 7.746094 45.285156 " fill-opacity="1" fill-rule="nonzero"/><path fill="#191919" d="M 13.054688 40.644531 C 13.054688 39.753906 13.257812 38.953125 13.664062 38.25 C 14.082031 37.550781 14.660156 36.996094 15.40625 36.59375 C 16.15625 36.1875 17.011719 35.984375 17.964844 35.984375 C 18.921875 35.984375 19.757812 36.1875 20.484375 36.59375 C 21.210938 36.996094 21.765625 37.550781 22.152344 38.25 C 22.546875 38.953125 22.746094 39.753906 22.746094 40.644531 C 22.746094 41.53125 22.546875 42.332031 22.152344 43.050781 C 21.765625 43.765625 21.210938 44.332031 20.484375 44.738281 C 19.757812 45.144531 18.90625 45.347656 17.925781 45.347656 C 16.972656 45.347656 16.125 45.160156 15.386719 44.78125 C 14.652344 44.398438 14.082031 43.859375 13.664062 43.15625 C 13.257812 42.453125 13.054688 41.617188 13.054688 40.644531 Z M 15.8125 40.667969 C 15.8125 41.355469 16.003906 41.929688 16.390625 42.386719 C 16.785156 42.84375 17.28125 43.070312 17.882812 43.070312 C 18.511719 43.070312 19.015625 42.847656 19.398438 42.394531 C 19.78125 41.949219 19.976562 41.371094 19.976562 40.667969 C 19.976562 39.964844 19.78125 39.386719 19.398438 38.9375 C 19.015625 38.480469 18.511719 38.25 17.882812 38.25 C 17.28125 38.25 16.785156 38.484375 16.390625 38.945312 C 16.003906 39.40625 15.8125 39.976562 15.8125 40.667969 Z M 15.8125 40.667969 " fill-opacity="1" fill-rule="nonzero"/><path fill="#191919" d="M 36.167969 35.960938 C 37 35.960938 37.667969 36.203125 38.167969 36.679688 C 38.667969 37.160156 38.9375 37.785156 38.964844 38.566406 L 38.964844 45.105469 L 36.25 45.105469 L 36.25 39.726562 C 36.222656 39.292969 36.148438 38.964844 36.03125 38.746094 C 35.914062 38.523438 35.683594 38.398438 35.347656 38.378906 C 34.707031 38.378906 34.203125 38.695312 33.84375 39.328125 C 33.484375 39.953125 33.304688 40.691406 33.304688 41.542969 L 33.304688 45.105469 L 30.570312 45.105469 L 30.570312 39.726562 C 30.542969 39.292969 30.460938 38.964844 30.332031 38.746094 C 30.199219 38.523438 29.957031 38.398438 29.605469 38.378906 C 28.988281 38.378906 28.507812 38.695312 28.15625 39.328125 C 27.804688 39.953125 27.628906 40.675781 27.628906 41.5 L 27.628906 45.105469 L 24.890625 45.105469 L 24.890625 36.40625 L 27.378906 36.40625 L 27.574219 37.777344 C 28.265625 36.570312 29.296875 35.960938 30.664062 35.960938 C 31.351562 35.960938 31.921875 36.105469 32.375 36.394531 C 32.828125 36.675781 33.140625 37.097656 33.304688 37.660156 C 33.671875 37.140625 34.105469 36.730469 34.613281 36.425781 C 35.113281 36.117188 35.632812 35.960938 36.167969 35.960938 Z M 36.167969 35.960938 " fill-opacity="1" fill-rule="nonzero"/><path fill="#191919" d="M 44.515625 36.40625 L 44.515625 45.105469 L 41.777344 45.105469 L 41.777344 36.40625 Z M 41.714844 33.316406 C 41.714844 32.914062 41.867188 32.582031 42.171875 32.3125 C 42.484375 32.039062 42.835938 31.902344 43.230469 31.902344 C 43.601562 31.902344 43.9375 32.039062 44.234375 32.3125 C 44.539062 32.582031 44.691406 32.914062 44.691406 33.316406 C 44.691406 33.714844 44.539062 34.050781 44.234375 34.316406 C 43.9375 34.578125 43.601562 34.707031 43.230469 34.707031 C 42.835938 34.707031 42.484375 34.578125 42.171875 34.316406 C 41.867188 34.050781 41.714844 33.714844 41.714844 33.316406 Z M 41.714844 33.316406 " fill-opacity="1" fill-rule="nonzero"/><path fill="#191919" d="M 52.714844 45.105469 L 50.746094 42.5 L 48.941406 45.105469 L 46.21875 45.105469 L 49.386719 40.71875 L 46.125 36.40625 L 49.492188 36.40625 L 51.367188 38.914062 L 52.839844 36.40625 L 55.554688 36.40625 L 52.621094 40.5625 L 56.03125 45.105469 Z M 52.714844 45.105469 " fill-opacity="1" fill-rule="nonzero"/><path fill="#191919" d="M 57.628906 29.390625 L 60.367188 29.390625 L 60.367188 45.105469 L 57.628906 45.105469 Z M 57.628906 29.390625 " fill-opacity="1" fill-rule="nonzero"/><g clip-path="url(#7c463a104b)"><path fill="#191919" d="M 72.039062 36.40625 L 66.511719 49.292969 L 63.871094 49.292969 L 65.921875 44.652344 L 61.972656 36.40625 L 65.042969 36.40625 L 67.300781 41.542969 L 69.570312 36.40625 Z M 72.039062 36.40625 " fill-opacity="1" fill-rule="nonzero"/></g></svg>