<svg xmlns="http://www.w3.org/2000/svg" xmlns:xlink="http://www.w3.org/1999/xlink" width="40" zoomAndPan="magnify" viewBox="0 0 30 30.000001" height="40" preserveAspectRatio="xMidYMid meet" version="1.0"><defs><g/></defs><g fill="#000000" fill-opacity="1"><g transform="translate(4.708682, 24.413072)"><g><path d="M 0.875 -9.609375 C 0.875 -11.484375 1.265625 -13.15625 2.046875 -14.625 C 2.835938 -16.101562 3.953125 -17.253906 5.390625 -18.078125 C 6.835938 -18.898438 8.503906 -19.3125 10.390625 -19.3125 C 12.773438 -19.3125 14.78125 -18.671875 16.40625 -17.390625 C 18.039062 -16.117188 19.09375 -14.390625 19.5625 -12.203125 L 13.828125 -12.203125 C 13.484375 -12.929688 13.007812 -13.484375 12.40625 -13.859375 C 11.800781 -14.242188 11.101562 -14.4375 10.3125 -14.4375 C 9.082031 -14.4375 8.097656 -13.992188 7.359375 -13.109375 C 6.628906 -12.234375 6.265625 -11.066406 6.265625 -9.609375 C 6.265625 -8.117188 6.628906 -6.9375 7.359375 -6.0625 C 8.097656 -5.1875 9.082031 -4.75 10.3125 -4.75 C 11.101562 -4.75 11.800781 -4.9375 12.40625 -5.3125 C 13.007812 -5.695312 13.484375 -6.25 13.828125 -6.96875 L 19.5625 -6.96875 C 19.09375 -4.78125 18.039062 -3.046875 16.40625 -1.765625 C 14.78125 -0.492188 12.773438 0.140625 10.390625 0.140625 C 8.503906 0.140625 6.835938 -0.269531 5.390625 -1.09375 C 3.953125 -1.914062 2.835938 -3.0625 2.046875 -4.53125 C 1.265625 -6.007812 0.875 -7.703125 0.875 -9.609375 Z M 0.875 -9.609375 "/></g></g></g></svg>